<svg width="480" height="442" viewBox="0 0 480 442" fill="none" xmlns="http://www.w3.org/2000/svg">
<path d="M377.3 107.33L318.532 22.438C314.176 16.1593 308.387 11.0089 301.644 7.41381C294.901 3.81868 287.398 1.88226 279.757 1.76501L168.23 0.165009H168C110.421 0.165009 66.243 9.79601 37.79 56.799C11.3 100.551 0 175.08 0 306V322H36.557L13.024 442H45.634L69.167 322H80C106.132 322.233 131.307 312.179 150.088 294.008C167.067 277.762 179.314 255.536 185.507 229.734L185.563 229.502L213.006 98H180.316L154.337 222.488C146.425 255.168 122.766 290 80 290H32.06C32.929 176.734 43.242 109.581 65.165 73.366C83.565 42.966 110.46 32.175 167.889 32.16L279.297 33.76C281.844 33.7988 284.345 34.4441 286.593 35.6425C288.841 36.8409 290.77 38.5579 292.222 40.651L358.7 136.67L448 151.554V168.513L433.108 247.934C428.713 271.375 421.2 283.183 390.39 286.884L264.084 308.493L263.249 442H295.249L295.916 335.507L394.616 318.607C416.976 315.858 433.473 308.652 445.042 296.584C454.932 286.266 460.951 273.084 464.561 253.832L480 171.487V124.446L377.3 107.33Z" fill="black"/>
</svg>
